<?xml version="1.0" encoding="UTF-8" standalone="no"?>
<svg
   xmlns:dc="http://purl.org/dc/elements/1.1/"
   xmlns:cc="http://creativecommons.org/ns#"
   xmlns:rdf="http://www.w3.org/1999/02/22-rdf-syntax-ns#"
   xmlns:svg="http://www.w3.org/2000/svg"
   xmlns="http://www.w3.org/2000/svg"
   xmlns:sodipodi="http://sodipodi.sourceforge.net/DTD/sodipodi-0.dtd"
   xmlns:inkscape="http://www.inkscape.org/namespaces/inkscape"
   inkscape:version="1.0 (4035a4fb49, 2020-05-01)"
   sodipodi:docname="group.svg"
   xml:space="preserve"
   style="enable-background:new 0 0 98.736 98.736;"
   viewBox="0 0 98.736 98.736"
   height="98.736px"
   width="98.736px"
   y="0px"
   x="0px"
   id="Capa_1"
   version="1.1"><metadata
   id="metadata53"><rdf:RDF><cc:Work
       rdf:about=""><dc:format>image/svg+xml</dc:format><dc:type
         rdf:resource="http://purl.org/dc/dcmitype/StillImage" /></cc:Work></rdf:RDF></metadata><defs
   id="defs51" /><sodipodi:namedview
   inkscape:current-layer="Capa_1"
   inkscape:window-maximized="1"
   inkscape:window-y="-9"
   inkscape:window-x="-9"
   inkscape:cy="49.368"
   inkscape:cx="49.368"
   inkscape:zoom="8.4062551"
   showgrid="false"
   id="namedview49"
   inkscape:window-height="1001"
   inkscape:window-width="1920"
   inkscape:pageshadow="2"
   inkscape:pageopacity="0"
   guidetolerance="10"
   gridtolerance="10"
   objecttolerance="10"
   borderopacity="1"
   bordercolor="#666666"
   pagecolor="#ffffff" />
<g
   style="fill:#fcbf29;fill-opacity:1"
   id="g16">
	<g
   style="fill:#fcbf29;fill-opacity:1"
   id="g14">
		<path
   style="fill:#fcbf29;fill-opacity:1"
   id="path2"
   d="M26.417,56.739c0-5.115,1.688-9.838,4.528-13.656c-2.974-2.673-6.893-4.313-11.205-4.313    c-9.272,0-16.789,7.518-16.789,16.789c0,0,3.95,35.276,16.789,35.276c4.962,0,8.592-5.274,11.184-11.739    c-3.025-9.953-4.248-19.888-4.488-22.026L26.417,56.739z" />
		<path
   style="fill:#fcbf29;fill-opacity:1"
   id="path4"
   d="M19.74,37.554c5.617,0,10.503-3.125,13.02-7.729c-2.513-3.413-4.006-7.619-4.006-12.173c0-2.066,0.313-4.06,0.882-5.943    c-2.625-2.358-6.088-3.808-9.896-3.808c-8.188,0-14.826,6.639-14.826,14.827C4.914,30.915,11.552,37.554,19.74,37.554z" />
		<path
   style="fill:#fcbf29;fill-opacity:1"
   id="path6"
   d="M78.996,38.77c-4.312,0-8.23,1.64-11.205,4.313c2.842,3.818,4.528,8.541,4.528,13.656l-0.019,0.33    c-0.24,2.14-1.463,12.073-4.488,22.026c2.592,6.465,6.222,11.739,11.184,11.739c12.839,0,16.789-35.276,16.789-35.276    C95.785,46.288,88.268,38.77,78.996,38.77z" />
		<path
   style="fill:#fcbf29;fill-opacity:1"
   id="path8"
   d="M65.977,29.824c2.517,4.604,7.401,7.729,13.02,7.729c8.188,0,14.826-6.639,14.826-14.826    c0-8.188-6.639-14.827-14.826-14.827c-3.809,0-7.271,1.449-9.896,3.808c0.568,1.884,0.883,3.877,0.883,5.943    C69.982,22.205,68.489,26.411,65.977,29.824z" />
		<path
   style="fill:#fcbf29;fill-opacity:1"
   id="path10"
   d="M49.368,36.751c-11.039,0-19.988,8.949-19.988,19.988c0,0,4.704,41.997,19.988,41.997s19.987-41.997,19.987-41.997    C69.355,45.7,60.407,36.751,49.368,36.751z" />
		<circle
   style="fill:#fcbf29;fill-opacity:1"
   id="circle12"
   r="17.651"
   cy="17.651"
   cx="49.368" />
	</g>
</g>
<g
   id="g18">
</g>
<g
   id="g20">
</g>
<g
   id="g22">
</g>
<g
   id="g24">
</g>
<g
   id="g26">
</g>
<g
   id="g28">
</g>
<g
   id="g30">
</g>
<g
   id="g32">
</g>
<g
   id="g34">
</g>
<g
   id="g36">
</g>
<g
   id="g38">
</g>
<g
   id="g40">
</g>
<g
   id="g42">
</g>
<g
   id="g44">
</g>
<g
   id="g46">
</g>
</svg>
